
<svg version="1.1" baseProfile="basic" id="Layer_1"
	 xmlns="http://www.w3.org/2000/svg" xmlns:xlink="http://www.w3.org/1999/xlink" x="0px" y="0px" viewBox="0 0 50 50"
	 xml:space="preserve">
<polygon style={{fill:none;stroke:#000000;stroke-width:0.5;stroke-linejoin:round;stroke-miterlimit:10;}} points="46,22.11 
	46,24.42 43,26.15 43,34.24 25,44.63 14,38.28 14,35.97 12,34.81 10,35.97 7,34.24 7,20.38 4,20.96 4,18.65 22,8.26 34,5.95 "/>
<polyline style="fill:none;stroke:#000000;stroke-width:0.5;stroke-linejoin:round;stroke-miterlimit:10;" points="4,18.65 
	16,16.34 28,32.506 46,22.11 "/>
<polyline style="fill:none;stroke:#000000;stroke-width:0.5;stroke-linejoin:round;stroke-miterlimit:10;" points="43,26.15 
	28,34.815 16,18.649 7,20.38 "/>
<line style="fill:none;stroke:#000000;stroke-width:0.5;stroke-linejoin:round;stroke-miterlimit:10;" x1="16" y1="16.34" x2="34" y2="5.95"/>
<polyline style="fill:none;stroke:#000000;stroke-width:0.5;stroke-linejoin:round;stroke-miterlimit:10;" points="10,35.97 
	10,26.732 14,29.041 14,35.97 "/>
<line style="fill:none;stroke:#000000;stroke-width:0.5;stroke-linejoin:round;stroke-miterlimit:10;" x1="12" y1="34.81" x2="12" y2="27.887"/>
<polygon style="fill:none;stroke:#000000;stroke-width:0.5;stroke-linejoin:round;stroke-miterlimit:10;" points="17,28.464 
	17,34.238 22,37.124 22,31.351 "/>
<polyline style="fill:none;stroke:#000000;stroke-width:0.5;stroke-linejoin:round;stroke-miterlimit:10;" points="19,29.619 
	19,33.083 22,34.815 "/>
<line style="fill:none;stroke:#000000;stroke-width:0.5;stroke-linejoin:round;stroke-miterlimit:10;" x1="17" y1="34.238" x2="19" y2="33.083"/>
<line style="fill:none;stroke:#000000;stroke-width:0.5;stroke-linejoin:round;stroke-miterlimit:10;" x1="28" y1="32.506" x2="28" y2="34.815"/>
<line style="fill:none;stroke:#000000;stroke-width:0.5;stroke-linejoin:round;stroke-miterlimit:10;" x1="25" y1="30.774" x2="25" y2="44.63"/>
<path d="M34,5.95l12,16.16v2.31l-3,1.73v8.09L25,44.63l-11-6.35v-2.31l-2-1.16l-2,1.16l-3-1.73V20.38l-3,0.58v-2.31L22,8.26L34,5.95
	 M34.428,4.849l-0.617,0.119l-12,2.31L21.646,7.31L21.5,7.394l-18,10.39L3,18.073v0.577v2.31v1.212l1.19-0.23L6,21.592V34.24v0.578
	l0.5,0.289l3,1.73l0.501,0.289l0.5-0.29L12,35.966l1,0.58v1.734v0.577l0.5,0.289l11,6.35l0.5,0.289l0.5-0.289l18-10.39l0.5-0.289
	V34.24v-7.512l2.5-1.441l0.5-0.289V24.42v-2.31v-0.331l-0.197-0.266l-12-16.16L34.428,4.849L34.428,4.849z"/>
</svg>